<svg xmlns="http://www.w3.org/2000/svg" xmlns:xlink="http://www.w3.org/1999/xlink" version="1.1" x="0px" y="0px" viewBox="0 0 100 100" fill="#222" style="enable-background:new 0 0 100 100;" xml:space="preserve"><path d="M50,26.3046875c-13.0654297,0-23.6953125,10.6298828-23.6953125,23.6953125S36.9345703,73.6953125,50,73.6953125  S73.6953125,63.0654297,73.6953125,50S63.0654297,26.3046875,50,26.3046875z M50,71.6953125  c-11.9628906,0-21.6953125-9.7324219-21.6953125-21.6953125S38.0371094,28.3046875,50,28.3046875  S71.6953125,38.0371094,71.6953125,50S61.9628906,71.6953125,50,71.6953125z"/><path d="M32.2954102,29.5146484c0.1977539,0.246582,0.487793,0.3745117,0.7807617,0.3745117  c0.2197266,0,0.4404297-0.0717773,0.625-0.2197266c0.5068359-0.40625,1.0327148-0.7973633,1.5634766-1.1621094  c0.4555664-0.3125,0.5712891-0.9350586,0.2583008-1.390625c-0.3120117-0.4550781-0.9345703-0.5698242-1.3901367-0.2578125  c-0.5717773,0.3925781-1.1376953,0.8129883-1.6826172,1.25C32.019043,28.4545898,31.9501953,29.0839844,32.2954102,29.5146484z"/><path d="M75.5678711,58.9267578c0.0981445,0.0302734,0.1972656,0.0449219,0.2949219,0.0449219  c0.4272461,0,0.8227539-0.2763672,0.9550781-0.7060547c0.2055664-0.6660156,0.3876953-1.3481445,0.5415039-2.0268555  c0.1225586-0.5385742-0.215332-1.0742188-0.7539062-1.1962891c-0.5351562-0.1240234-1.0742188,0.215332-1.1962891,0.7539062  c-0.1430664,0.6293945-0.3120117,1.262207-0.5024414,1.8803711C74.7441406,58.2045898,75.0400391,58.7641602,75.5678711,58.9267578z  "/><path d="M42.9223633,23.859375c0.1064453,0.4628906,0.5180664,0.7758789,0.9736328,0.7758789  c0.0742188,0,0.1499023-0.0083008,0.2250977-0.0253906c0.6303711-0.1450195,1.2744141-0.2680664,1.9130859-0.3662109  c0.5463867-0.0830078,0.9208984-0.5932617,0.8374023-1.1391602c-0.0825195-0.5463867-0.5942383-0.9257812-1.1391602-0.8374023  c-0.6884766,0.1049805-1.3813477,0.2373047-2.0595703,0.3935547C43.1342773,22.784668,42.7983398,23.3212891,42.9223633,23.859375z"/><path d="M23.9438477,50c0-0.6313477,0.0224609-1.2675781,0.0673828-1.8911133  c0.0395508-0.5507812-0.3754883-1.0292969-0.9262695-1.0688477c-0.5566406-0.0268555-1.0292969,0.375-1.0688477,0.9262695  C21.9682617,48.637207,21.9438477,49.3212891,21.9438477,50v0.0581055c0,0.5522461,0.4477539,0.9707031,1,0.9707031  S23.9438477,50.5522461,23.9438477,50z"/><path d="M29.3862305,30.9677734c-0.4716797,0.5102539-0.9306641,1.0458984-1.3647461,1.5922852  c-0.34375,0.4321289-0.2719727,1.0610352,0.1606445,1.4047852c0.1835938,0.1464844,0.4033203,0.2172852,0.621582,0.2172852  c0.2944336,0,0.5859375-0.1293945,0.7832031-0.3779297c0.4038086-0.5073242,0.8300781-1.0048828,1.2680664-1.4790039  c0.375-0.4057617,0.3500977-1.0385742-0.0556641-1.4130859C30.3935547,30.5371094,29.7602539,30.5629883,29.3862305,30.9677734z"/><path d="M23.6274414,57.074707c0.0742188,0,0.1494141-0.0083008,0.2246094-0.0253906  c0.5380859-0.1235352,0.8745117-0.6601562,0.7509766-1.1982422c-0.1445312-0.6313477-0.2670898-1.2749023-0.3637695-1.9125977  c-0.0825195-0.5458984-0.5908203-0.9243164-1.1386719-0.8388672c-0.5458984,0.0830078-0.9213867,0.5922852-0.8388672,1.1386719  c0.1040039,0.6870117,0.2358398,1.3803711,0.3920898,2.0600586C22.7597656,56.7612305,23.171875,57.074707,23.6274414,57.074707z"/><path d="M50,21.9438477h-0.0869141c-0.5522461,0-0.956543,0.4477539-0.956543,1s0.4912109,1,1.043457,1  c0.6191406,0,1.2460938,0.0219727,1.862793,0.0654297c0.0239258,0.0014648,0.0478516,0.0024414,0.0712891,0.0024414  c0.5205078,0,0.9594727-0.402832,0.996582-0.9296875c0.0385742-0.5512695-0.3764648-1.0292969-0.9272461-1.0678711  C51.3398438,21.9672852,50.6655273,21.9438477,50,21.9438477z"/><path d="M25.6655273,36.0273438c-0.3466797,0.6025391-0.6757812,1.2275391-0.9780273,1.8569336  c-0.2387695,0.4980469-0.0283203,1.0957031,0.4692383,1.3344727c0.1396484,0.0668945,0.2871094,0.0981445,0.4321289,0.0981445  c0.3725586,0,0.7299805-0.2089844,0.9023438-0.5673828c0.2802734-0.5849609,0.5859375-1.1650391,0.9077148-1.7241211  c0.2753906-0.4785156,0.1108398-1.090332-0.3676758-1.3657227C26.5541992,35.3857422,25.9414062,35.5488281,25.6655273,36.0273438z"/><path d="M24.4125977,41.1279297c-0.5258789-0.1606445-1.0869141,0.1362305-1.2490234,0.6640625  c-0.2036133,0.6669922-0.3842773,1.3491211-0.5366211,2.0283203c-0.1210938,0.5390625,0.2177734,1.0737305,0.7563477,1.1948242  c0.0737305,0.0166016,0.1474609,0.0244141,0.2202148,0.0244141c0.4575195,0,0.8701172-0.315918,0.9746094-0.7807617  c0.1416016-0.6303711,0.309082-1.2631836,0.4985352-1.8818359C25.237793,41.8486328,24.9404297,41.2895508,24.4125977,41.1279297z"/><path d="M74.2236328,40.3808594c0.1557617,0.3920898,0.5317383,0.6313477,0.9296875,0.6313477  c0.1225586,0,0.2475586-0.0229492,0.3686523-0.0712891c0.5131836-0.2036133,0.7641602-0.7851562,0.5600586-1.2983398  c-0.2563477-0.6455078-0.5415039-1.2905273-0.8466797-1.9169922c-0.2426758-0.4975586-0.8427734-0.7021484-1.3369141-0.4609375  c-0.496582,0.2421875-0.703125,0.8408203-0.4609375,1.3369141C73.7211914,39.1831055,73.9853516,39.7817383,74.2236328,40.3808594z"/><path d="M77.9790039,52.0942383c0.0512695-0.6904297,0.0771484-1.3950195,0.0771484-2.1069336l-0.0004883-0.1035156  c0-0.5522461-0.4477539-1-1-1s-1,0.4477539-1,1L76.0561523,50c0,0.6503906-0.0239258,1.3051758-0.0712891,1.9467773  c-0.0410156,0.5507812,0.3725586,1.0302734,0.9233398,1.0708008c0.0249023,0.0019531,0.0498047,0.0029297,0.074707,0.0029297  C77.5019531,53.0205078,77.9404297,52.6201172,77.9790039,52.0942383z"/><path d="M76.7392578,46.8549805c0.0507812,0,0.1025391-0.0039062,0.1542969-0.0117188  c0.5454102-0.0844727,0.9199219-0.5952148,0.8354492-1.1411133c-0.1069336-0.6918945-0.2402344-1.3847656-0.3964844-2.0585938  c-0.1245117-0.5385742-0.6640625-0.8740234-1.199707-0.7485352c-0.5380859,0.1245117-0.8730469,0.6616211-0.7485352,1.199707  c0.1450195,0.6259766,0.269043,1.2695312,0.3681641,1.9130859C75.8286133,46.5014648,76.2543945,46.8549805,76.7392578,46.8549805z"/><path d="M60.7553711,25.1455078c-0.2387695,0.4985352-0.027832,1.0952148,0.4702148,1.3334961  c0.5844727,0.2797852,1.1650391,0.5849609,1.7250977,0.90625c0.1572266,0.090332,0.328125,0.1328125,0.4970703,0.1328125  c0.3466797,0,0.6835938-0.1801758,0.8681641-0.5019531c0.2749023-0.4790039,0.1098633-1.090332-0.3691406-1.3652344  c-0.6035156-0.3461914-1.2285156-0.6748047-1.8579102-0.9755859C61.5917969,24.4360352,60.9931641,24.6474609,60.7553711,25.1455078  z"/><path d="M55.7143555,24.5722656c0.6274414,0.1401367,1.2612305,0.3071289,1.8828125,0.4960938  c0.097168,0.0297852,0.1948242,0.0439453,0.2915039,0.0439453c0.4287109,0,0.8251953-0.2783203,0.9560547-0.7094727  c0.1606445-0.5288086-0.137207-1.0874023-0.6655273-1.2475586c-0.6694336-0.2036133-1.3520508-0.3837891-2.0283203-0.5351562  c-0.5375977-0.1181641-1.0732422,0.21875-1.1943359,0.7578125C54.8359375,23.9169922,55.175293,24.4516602,55.7143555,24.5722656z"/><path d="M67.6542969,30.8364258c0.1918945,0.1772461,0.4350586,0.2646484,0.6772461,0.2646484  c0.2695312,0,0.5385742-0.1083984,0.7358398-0.3222656c0.3740234-0.4057617,0.3486328-1.0385742-0.0576172-1.4130859  c-0.5107422-0.4707031-1.046875-0.9291992-1.5932617-1.3632812c-0.4326172-0.3413086-1.0610352-0.2695312-1.4052734,0.1621094  c-0.3427734,0.4326172-0.2705078,1.0620117,0.1621094,1.4052734C66.6816406,29.9726562,67.1796875,30.3989258,67.6542969,30.8364258  z"/><path d="M70.465332,32.2739258c-0.4301758,0.3461914-0.4985352,0.9760742-0.1523438,1.40625  c0.4038086,0.5014648,0.7954102,1.0273438,1.1635742,1.5620117c0.1943359,0.2817383,0.5068359,0.4326172,0.824707,0.4326172  c0.1953125,0,0.3930664-0.0571289,0.5664062-0.1762695c0.4545898-0.3134766,0.5693359-0.9360352,0.2563477-1.3911133  c-0.3964844-0.5751953-0.8178711-1.1411133-1.2524414-1.6811523C71.5249023,31.9960938,70.8955078,31.9287109,70.465332,32.2739258z  "/><path d="M39.6704102,23.9067383c-0.6450195,0.2553711-1.2905273,0.5395508-1.9179688,0.8447266  c-0.496582,0.2412109-0.7036133,0.8398438-0.4624023,1.3364258c0.1728516,0.355957,0.5292969,0.5629883,0.9003906,0.5629883  c0.1464844,0,0.2954102-0.0322266,0.4360352-0.1005859c0.5830078-0.2832031,1.1816406-0.546875,1.7802734-0.7841797  c0.5136719-0.2036133,0.7651367-0.784668,0.5615234-1.2978516S40.1835938,23.703125,39.6704102,23.9067383z"/><path d="M32.3051758,69.1259766c-0.4047852-0.3745117-1.0371094-0.3520508-1.4130859,0.0537109  c-0.3754883,0.4047852-0.3515625,1.0375977,0.0537109,1.4130859c0.5083008,0.4711914,1.0439453,0.9316406,1.5908203,1.3671875  c0.184082,0.1464844,0.4038086,0.2177734,0.6225586,0.2177734c0.2939453,0,0.5854492-0.1289062,0.7827148-0.3769531  c0.3442383-0.4321289,0.2729492-1.0610352-0.1591797-1.4052734C33.2744141,69.9907227,32.7773438,69.5634766,32.3051758,69.1259766z  "/><path d="M57.0214844,76.1552734c-0.1230469-0.5380859-0.6586914-0.8740234-1.1977539-0.7524414  c-0.6279297,0.1435547-1.2714844,0.265625-1.9130859,0.3623047c-0.5463867,0.0825195-0.9223633,0.5917969-0.8398438,1.1376953  c0.074707,0.4956055,0.5009766,0.8510742,0.9873047,0.8510742c0.0498047,0,0.1000977-0.003418,0.1503906-0.0112305  c0.690918-0.1040039,1.3842773-0.2353516,2.0605469-0.3896484C56.8076172,77.2299805,57.1445312,76.6933594,57.0214844,76.1552734z"/><path d="M25.7548828,59.5664062c-0.203125-0.5131836-0.7822266-0.7670898-1.2973633-0.5620117  c-0.5136719,0.203125-0.7651367,0.7836914-0.5620117,1.2973633c0.2568359,0.6494141,0.5400391,1.2949219,0.8422852,1.918457  c0.1728516,0.3564453,0.5292969,0.5639648,0.9003906,0.5639648c0.1464844,0,0.2954102-0.0322266,0.4355469-0.1000977  c0.4970703-0.2407227,0.7045898-0.8388672,0.4638672-1.3359375C26.2568359,60.769043,25.9936523,60.1694336,25.7548828,59.5664062z"/><path d="M28.871582,67.9013672c0.2192383,0,0.4404297-0.0717773,0.6245117-0.2197266  c0.4311523-0.3452148,0.5009766-0.9746094,0.1552734-1.4052734c-0.4047852-0.5058594-0.7949219-1.0317383-1.1601562-1.5644531  c-0.3120117-0.4545898-0.9331055-0.5712891-1.3901367-0.2592773c-0.4555664,0.3120117-0.5717773,0.9345703-0.2592773,1.3901367  c0.3925781,0.5732422,0.8129883,1.1396484,1.2490234,1.6835938C28.2880859,67.7729492,28.5786133,67.9013672,28.871582,67.9013672z"/><path d="M38.2905273,75.3984375c0.3720703,0,0.7294922-0.2084961,0.9018555-0.5668945  c0.2392578-0.4975586,0.0297852-1.0952148-0.4682617-1.3344727c-0.5800781-0.2788086-1.159668-0.5849609-1.7231445-0.909668  c-0.4785156-0.2773438-1.090332-0.1123047-1.3657227,0.3666992c-0.2758789,0.4785156-0.1118164,1.0898438,0.3666992,1.3657227  c0.6064453,0.3496094,1.230957,0.6796875,1.855957,0.9799805C37.9975586,75.3666992,38.1450195,75.3984375,38.2905273,75.3984375z"/><path d="M50,78.0561523h0.0292969c0.5522461,0,0.9853516-0.4477539,0.9853516-1s-0.4624023-1-1.0146484-1  c-0.6386719,0-1.2841797-0.0234375-1.918457-0.0698242c-0.559082-0.0366211-1.0297852,0.3745117-1.0703125,0.9248047  c-0.0400391,0.5507812,0.3740234,1.0297852,0.9248047,1.0703125C48.6186523,78.0307617,49.3129883,78.0561523,50,78.0561523z"/><path d="M67.6601562,70.5229492c-0.3452148-0.4316406-0.9746094-0.5-1.4057617-0.1567383  c-0.5068359,0.4057617-1.0336914,0.7954102-1.5649414,1.1582031c-0.4560547,0.3115234-0.5732422,0.9335938-0.2617188,1.3896484  c0.1933594,0.2836914,0.5073242,0.4360352,0.8266602,0.4360352c0.1943359,0,0.390625-0.0561523,0.5629883-0.1743164  c0.5727539-0.3911133,1.1396484-0.8105469,1.6860352-1.2470703C67.9345703,71.5834961,68.0048828,70.9545898,67.6601562,70.5229492z  "/><path d="M74.3046875,64.0239258c0.3481445-0.6020508,0.6787109-1.2260742,0.9819336-1.8544922  c0.2397461-0.4975586,0.03125-1.0952148-0.4663086-1.3354492c-0.4980469-0.2397461-1.0961914-0.0317383-1.3354492,0.4663086  c-0.28125,0.5839844-0.5878906,1.1630859-0.9116211,1.7226562c-0.2763672,0.4780273-0.112793,1.0898438,0.3652344,1.3662109  c0.1577148,0.0913086,0.3295898,0.1342773,0.4995117,0.1342773C73.7832031,64.5234375,74.1191406,64.3447266,74.3046875,64.0239258z  "/><path d="M70.5732422,69.0756836c0.4755859-0.5131836,0.9360352-1.0478516,1.3681641-1.5888672  c0.3442383-0.4316406,0.2739258-1.0610352-0.1577148-1.4057617c-0.4311523-0.3432617-1.0605469-0.2729492-1.4057617,0.1577148  c-0.4013672,0.503418-0.8291016,1.0004883-1.2714844,1.4775391c-0.3754883,0.4047852-0.3515625,1.0375977,0.0537109,1.4130859  c0.1923828,0.1782227,0.4360352,0.2666016,0.6796875,0.2666016C70.1083984,69.3959961,70.3759766,69.2885742,70.5732422,69.0756836z  "/><path d="M44.2314453,75.4155273c-0.6342773-0.1430664-1.2675781-0.3115234-1.8808594-0.5004883  c-0.5288086-0.1606445-1.0874023,0.1342773-1.25,0.6621094c-0.1621094,0.527832,0.1342773,1.0874023,0.6621094,1.25  c0.6621094,0.203125,1.3442383,0.3847656,2.0283203,0.5395508c0.0742188,0.0166016,0.1479492,0.0244141,0.2211914,0.0244141  c0.4570312,0,0.8696289-0.3149414,0.9746094-0.7797852C45.1083984,76.0727539,44.7705078,75.5375977,44.2314453,75.4155273z"/><path d="M59.9082031,76.1855469c0.121582,0,0.2456055-0.0224609,0.3657227-0.0698242  c0.6474609-0.2548828,1.293457-0.5380859,1.9199219-0.8408203c0.4970703-0.2407227,0.7050781-0.8388672,0.4648438-1.3359375  c-0.2407227-0.4975586-0.8398438-0.7041016-1.3359375-0.4648438c-0.5810547,0.28125-1.1806641,0.5439453-1.78125,0.7802734  c-0.5141602,0.2026367-0.7666016,0.7832031-0.5644531,1.296875C59.1323242,75.9448242,59.5092773,76.1855469,59.9082031,76.1855469z  "/><path d="M88.0424805,37.6391602c-0.6914062-2.1274414-2.1801758-3.8798828-4.1445312-4.9111328  c0.3203125-2.1953125-0.2226562-4.4301758-1.5371094-6.2397461c-1.3154297-1.8095703-3.2729492-3.0161133-5.4594727-3.3896484  c-0.3735352-2.1865234-1.5800781-4.144043-3.3896484-5.4594727c-1.8100586-1.3149414-4.0478516-1.8583984-6.2397461-1.5371094  c-1.03125-1.9643555-2.7836914-3.453125-4.9111328-4.1445312c-2.1274414-0.6918945-4.4208984-0.5170898-6.409668,0.4663086  C54.3637695,10.8745117,52.2368164,10,50,10s-4.3637695,0.8745117-5.9511719,2.4238281  c-1.9897461-0.9829102-4.2832031-1.1577148-6.409668-0.4663086c-2.1274414,0.6914062-3.8798828,2.1801758-4.9111328,4.1445312  c-2.1977539-0.3208008-4.4306641,0.222168-6.2397461,1.5371094c-1.8095703,1.3154297-3.0161133,3.2729492-3.3896484,5.4594727  c-2.1865234,0.3735352-4.144043,1.5800781-5.4594727,3.3896484c-1.3144531,1.8095703-1.8574219,4.0444336-1.5371094,6.2397461  c-1.9643555,1.03125-3.453125,2.7836914-4.1445312,4.9111328c-0.690918,2.1274414-0.5166016,4.4204102,0.4663086,6.4091797  C10.8745117,45.6362305,10,47.7631836,10,50s0.8745117,4.3637695,2.4238281,5.9511719  c-0.9829102,1.9892578-1.1572266,4.2817383-0.4663086,6.409668c0.6914062,2.1274414,2.1801758,3.8798828,4.1445312,4.9111328  c-0.3203125,2.1953125,0.2226562,4.4301758,1.5371094,6.2397461c1.3154297,1.8095703,3.2729492,3.0161133,5.4594727,3.3896484  c0.3735352,2.1865234,1.5800781,4.144043,3.3896484,5.4594727c1.8095703,1.3139648,4.0439453,1.8564453,6.2397461,1.5371094  c1.03125,1.9643555,2.7836914,3.453125,4.9111328,4.1445312c2.1279297,0.690918,4.4213867,0.5170898,6.409668-0.4663086  C45.6362305,89.1254883,47.7631836,90,50,90s4.3637695-0.8745117,5.9511719-2.4238281  c1.9897461,0.9833984,4.2827148,1.1572266,6.409668,0.4663086c2.1274414-0.6914062,3.8798828-2.1801758,4.9111328-4.1445312  c2.1967773,0.3212891,4.4306641-0.222168,6.2397461-1.5371094c1.8095703-1.3154297,3.0161133-3.2729492,3.3896484-5.4594727  c2.1865234-0.3735352,4.144043-1.5800781,5.4594727-3.3896484c1.3144531-1.8095703,1.8574219-4.0444336,1.5371094-6.2397461  c1.9643555-1.03125,3.453125-2.7836914,4.1445312-4.9111328c0.690918-2.1279297,0.5166016-4.4204102-0.4663086-6.409668  C89.1254883,54.3637695,90,52.2368164,90,50s-0.8745117-4.3637695-2.4238281-5.9516602  C88.559082,42.0595703,88.7333984,39.7666016,88.0424805,37.6391602z M88,50c0,1.9243164-0.8461914,3.7426758-2.3217773,4.9887695  c-0.3793945,0.3203125-0.4663086,0.8696289-0.2045898,1.2915039c1.0180664,1.6411133,1.2612305,3.6323242,0.6665039,5.4624023  s-1.9614258,3.2978516-3.75,4.0273438c-0.4594727,0.1870117-0.7119141,0.6826172-0.59375,1.1645508  c0.4614258,1.8759766,0.0771484,3.8447266-1.0537109,5.4013672c-1.1313477,1.5571289-2.8847656,2.5307617-4.8110352,2.6708984  c-0.4951172,0.0361328-0.8886719,0.4296875-0.9248047,0.9248047c-0.1401367,1.9262695-1.1137695,3.6796875-2.6708984,4.8110352  c-1.5566406,1.1313477-3.5244141,1.515625-5.4013672,1.0537109c-0.4814453-0.1181641-0.9775391,0.1342773-1.1645508,0.59375  c-0.7294922,1.7885742-2.1972656,3.1552734-4.0273438,3.75c-1.8310547,0.5942383-3.8208008,0.3515625-5.4624023-0.6665039  c-0.4223633-0.2626953-0.9707031-0.175293-1.2915039,0.2045898C53.7426758,87.1538086,51.9243164,88,50,88  s-3.7426758-0.8461914-4.9887695-2.3217773c-0.1962891-0.2324219-0.4785156-0.3549805-0.7646484-0.3549805  c-0.1811523,0-0.3632812,0.0488281-0.5268555,0.1503906c-1.6416016,1.0175781-3.6328125,1.2602539-5.4624023,0.6665039  c-1.8300781-0.5947266-3.2978516-1.9614258-4.0273438-3.75c-0.1875-0.4594727-0.6826172-0.7119141-1.1645508-0.59375  c-1.8774414,0.4624023-3.8442383,0.0776367-5.4013672-1.0537109s-2.5307617-2.8847656-2.6708984-4.8110352  c-0.0361328-0.4951172-0.4296875-0.8886719-0.9248047-0.9248047c-1.9262695-0.1401367-3.6796875-1.1137695-4.8110352-2.6708984  c-1.1308594-1.5566406-1.5151367-3.5253906-1.0537109-5.4013672c0.1181641-0.4819336-0.1342773-0.9775391-0.59375-1.1645508  c-1.7885742-0.7294922-3.1552734-2.1972656-3.75-4.0273438s-0.3515625-3.8212891,0.6665039-5.4624023  c0.2617188-0.421875,0.1748047-0.9711914-0.2045898-1.2915039C12.8461914,53.7426758,12,51.9243164,12,50  s0.8461914-3.7426758,2.3217773-4.9887695c0.3793945-0.3203125,0.4663086-0.8696289,0.2045898-1.2910156  c-1.0180664-1.6420898-1.2612305-3.6333008-0.6665039-5.4628906c0.5947266-1.8300781,1.9614258-3.2978516,3.75-4.0273438  c0.4594727-0.1870117,0.7119141-0.6826172,0.59375-1.1645508c-0.4614258-1.8759766-0.0771484-3.8447266,1.0537109-5.4013672  c1.1313477-1.5571289,2.8847656-2.5307617,4.8110352-2.6708984c0.4951172-0.0361328,0.8886719-0.4296875,0.9248047-0.9248047  c0.1401367-1.9262695,1.1137695-3.6796875,2.6708984-4.8110352c1.5561523-1.1308594,3.5253906-1.5151367,5.4013672-1.0537109  c0.4819336,0.1181641,0.9780273-0.1347656,1.1645508-0.59375c0.7294922-1.7885742,2.1972656-3.1552734,4.0273438-3.75  c1.8291016-0.5942383,3.8203125-0.3520508,5.4624023,0.6665039c0.421875,0.2617188,0.9702148,0.175293,1.2915039-0.2045898  C46.2573242,12.8461914,48.0756836,12,50,12s3.7426758,0.8461914,4.9887695,2.3217773  c0.3208008,0.3798828,0.8691406,0.4663086,1.2915039,0.2045898c1.640625-1.0180664,3.6333008-1.2612305,5.4624023-0.6665039  c1.8300781,0.5947266,3.2978516,1.9614258,4.0273438,3.75c0.1875,0.4589844,0.6831055,0.7119141,1.1645508,0.59375  c1.8779297-0.4604492,3.8452148-0.0766602,5.4013672,1.0537109c1.5571289,1.1313477,2.5307617,2.8847656,2.6708984,4.8110352  c0.0361328,0.4951172,0.4296875,0.8886719,0.9248047,0.9248047c1.9262695,0.1401367,3.6796875,1.1137695,4.8110352,2.6708984  c1.1308594,1.5566406,1.5151367,3.5253906,1.0537109,5.4013672c-0.1181641,0.4819336,0.1342773,0.9775391,0.59375,1.1645508  c1.7885742,0.7294922,3.1552734,2.1972656,3.75,4.0273438c0.5947266,1.8295898,0.3515625,3.8208008-0.6665039,5.4628906  c-0.2617188,0.4213867-0.1748047,0.9707031,0.2045898,1.2910156C87.1538086,46.2573242,88,48.0756836,88,50z"/><path d="M46.875,18.2597656c0.4838867,0.265625,1.0917969,0.0883789,1.3579102-0.3950195  C48.5922852,17.2104492,49.2695312,16.8037109,50,16.8037109s1.4077148,0.4067383,1.7670898,1.0610352  c0.1821289,0.331543,0.5244141,0.5185547,0.8774414,0.5185547c0.1625977,0,0.3276367-0.0395508,0.4804688-0.1235352  c0.4838867-0.265625,0.6611328-0.8740234,0.3950195-1.3579102C52.809082,15.6079102,51.4604492,14.8037109,50,14.8037109  s-2.809082,0.8041992-3.5200195,2.0981445C46.2138672,17.3857422,46.3911133,17.9941406,46.875,18.2597656z"/><path d="M37.2192383,20.7788086c0.0634766,0.0117188,0.1264648,0.0175781,0.1884766,0.0175781  c0.4707031,0,0.8901367-0.3334961,0.9814453-0.8125c0.1396484-0.7338867,0.6582031-1.3295898,1.3520508-1.5551758  c0.6958008-0.2260742,1.465332-0.0473633,2.0087891,0.4628906c0.4033203,0.3789062,1.0356445,0.3588867,1.4135742-0.043457  c0.378418-0.402832,0.3588867-1.0356445-0.043457-1.4135742c-1.0766602-1.0117188-2.6079102-1.3579102-3.996582-0.9082031  c-1.3881836,0.4511719-2.4223633,1.6323242-2.6992188,3.0825195C36.3208008,20.1513672,36.6767578,20.675293,37.2192383,20.7788086z  "/><path d="M28.6884766,26.1665039c0.0419922,0,0.0844727-0.0024414,0.1269531-0.0078125  c0.5478516-0.0693359,0.9360352-0.5698242,0.8666992-1.1176758c-0.09375-0.7412109,0.2148438-1.4682617,0.8051758-1.8974609  c0.5908203-0.4301758,1.3774414-0.4985352,2.0532227-0.1796875c0.4985352,0.2353516,1.0947266,0.0214844,1.3310547-0.4785156  c0.2353516-0.4995117,0.0209961-1.0952148-0.4785156-1.3310547c-1.3369141-0.6289062-2.8994141-0.4873047-4.0810547,0.3710938  c-1.1811523,0.8583984-1.7998047,2.3017578-1.6142578,3.7666016C27.7617188,25.7973633,28.1923828,26.1665039,28.6884766,26.1665039  z"/><path d="M22.0595703,33.9667969c0.1430664,0,0.2880859-0.0302734,0.4257812-0.0952148  c0.4995117-0.2358398,0.7138672-0.831543,0.4785156-1.3310547c-0.3183594-0.675293-0.2495117-1.4619141,0.1796875-2.0527344  c0.4291992-0.5913086,1.152832-0.9008789,1.8974609-0.8056641c0.550293,0.0722656,1.0483398-0.3183594,1.1176758-0.8666992  c0.0693359-0.5478516-0.3188477-1.0483398-0.8666992-1.1176758c-1.4609375-0.1816406-2.9082031,0.4331055-3.7666016,1.6147461  c-0.8579102,1.1811523-1.0004883,2.7451172-0.3710938,4.0805664C21.3251953,33.7548828,21.6845703,33.9672852,22.0595703,33.9667969  z"/><path d="M18.1630859,43.4350586c0.2456055,0,0.4916992-0.0898438,0.6850586-0.2714844  c0.4023438-0.3779297,0.421875-1.0107422,0.043457-1.4135742c-0.5112305-0.5439453-0.6884766-1.3134766-0.4628906-2.0083008  c0.2255859-0.6943359,0.8212891-1.2128906,1.5551758-1.3525391c0.5424805-0.1035156,0.8984375-0.6274414,0.7949219-1.1699219  c-0.1030273-0.5419922-0.6245117-0.8959961-1.1699219-0.7949219c-1.4501953,0.2768555-2.6313477,1.3110352-3.0825195,2.699707  s-0.1030273,2.9199219,0.9082031,3.9960938C17.6313477,43.3291016,17.8969727,43.4350586,18.1630859,43.4350586z"/><path d="M17.3823242,53.6435547c0.3530273,0,0.6953125-0.1870117,0.8774414-0.5185547  c0.2661133-0.4838867,0.0888672-1.0922852-0.3950195-1.3579102C17.2104492,51.4077148,16.8037109,50.7304688,16.8037109,50  s0.4067383-1.4077148,1.0610352-1.7670898c0.4838867-0.265625,0.6611328-0.8740234,0.3950195-1.3579102  c-0.265625-0.484375-0.8720703-0.6606445-1.3579102-0.3950195C15.6079102,47.190918,14.8037109,48.5395508,14.8037109,50  s0.8041992,2.809082,2.0981445,3.5200195C17.0546875,53.6040039,17.2197266,53.6435547,17.3823242,53.6435547z"/><path d="M19.9838867,61.6108398c-0.7338867-0.1396484-1.3295898-0.6582031-1.5551758-1.3520508  C18.203125,59.5634766,18.3803711,58.7939453,18.8916016,58.25c0.378418-0.402832,0.3588867-1.0356445-0.043457-1.4135742  c-0.402832-0.3779297-1.0356445-0.3583984-1.4135742,0.043457c-1.0112305,1.0761719-1.359375,2.6074219-0.9082031,3.996582  c0.4511719,1.3881836,1.6323242,2.4223633,3.0825195,2.6992188c0.0634766,0.0117188,0.1264648,0.0175781,0.1884766,0.0175781  c0.4707031,0,0.8901367-0.3334961,0.9814453-0.8125C20.8823242,62.2382812,20.5263672,61.7143555,19.9838867,61.6108398z"/><path d="M25.0410156,70.3178711c-0.7431641,0.0922852-1.4682617-0.215332-1.8974609-0.8051758  c-0.4291992-0.5913086-0.4980469-1.3779297-0.1796875-2.0532227c0.2353516-0.4995117,0.0209961-1.0952148-0.4785156-1.3310547  c-0.4990234-0.2353516-1.0952148-0.0214844-1.3310547,0.4785156c-0.6293945,1.3354492-0.4868164,2.8994141,0.3710938,4.0810547  c0.7578125,1.0424805,1.9707031,1.6464844,3.2524414,1.6464844c0.1704102,0,0.3422852-0.0107422,0.5141602-0.0322266  c0.5478516-0.0693359,0.9360352-0.5698242,0.8666992-1.1176758C26.0893555,70.6362305,25.5898438,70.253418,25.0410156,70.3178711z"/><path d="M32.5405273,77.0361328c-0.6757812,0.3183594-1.4624023,0.2485352-2.0527344-0.1796875  c-0.5908203-0.4291992-0.8994141-1.15625-0.8056641-1.8974609c0.0693359-0.5478516-0.3188477-1.0483398-0.8666992-1.1176758  c-0.5400391-0.0639648-1.0483398,0.3188477-1.1176758,0.8666992c-0.1855469,1.4648438,0.4331055,2.9082031,1.6147461,3.7666016  c0.6923828,0.5029297,1.515625,0.7597656,2.3476562,0.7597656c0.5878906,0,1.1801758-0.128418,1.7329102-0.3886719  c0.4995117-0.2358398,0.7138672-0.831543,0.4785156-1.3310547C33.6352539,77.0146484,33.0390625,76.8007812,32.5405273,77.0361328z"/><path d="M41.75,81.1083984c-0.543457,0.5107422-1.3125,0.6899414-2.0083008,0.4628906  c-0.6943359-0.2255859-1.2128906-0.8212891-1.3525391-1.5551758c-0.1030273-0.5424805-0.621582-0.8955078-1.1699219-0.7949219  c-0.5424805,0.1035156-0.8984375,0.6274414-0.7949219,1.1699219c0.2768555,1.4501953,1.3110352,2.6313477,2.699707,3.0825195  c0.4018555,0.1303711,0.8154297,0.1938477,1.2270508,0.1938477c1.0097656,0,2.0043945-0.3833008,2.769043-1.1020508  c0.4023438-0.3779297,0.421875-1.0107422,0.043457-1.4135742C42.7856445,80.75,42.152832,80.7299805,41.75,81.1083984z"/><path d="M53.125,81.7402344c-0.4858398-0.2666016-1.0922852-0.0893555-1.3579102,0.3950195  C51.4077148,82.7895508,50.7304688,83.1962891,50,83.1962891s-1.4077148-0.4067383-1.7670898-1.0610352  c-0.265625-0.4833984-0.8725586-0.6601562-1.3579102-0.3950195c-0.4838867,0.265625-0.6611328,0.8740234-0.3950195,1.3579102  C47.190918,84.3920898,48.5395508,85.1962891,50,85.1962891s2.809082-0.8041992,3.5200195-2.0981445  C53.7861328,82.6142578,53.6088867,82.0058594,53.125,81.7402344z"/><path d="M62.7807617,79.2211914c-0.5473633-0.1015625-1.0664062,0.2524414-1.1699219,0.7949219  c-0.1396484,0.7338867-0.6582031,1.3295898-1.3520508,1.5551758c-0.6967773,0.2260742-1.465332,0.0473633-2.0087891-0.4628906  c-0.4023438-0.3779297-1.0351562-0.3579102-1.4135742,0.043457c-0.378418,0.402832-0.3588867,1.0356445,0.043457,1.4135742  c0.7646484,0.71875,1.7592773,1.1020508,2.769043,1.1020508c0.4116211,0,0.8251953-0.0634766,1.2275391-0.1938477  c1.3881836-0.4511719,2.4223633-1.6323242,2.6992188-3.0825195C63.6791992,79.8486328,63.3232422,79.324707,62.7807617,79.2211914z"/><path d="M71.1845703,73.8413086c-0.5478516,0.0693359-0.9360352,0.5698242-0.8666992,1.1176758  c0.09375,0.7412109-0.2148438,1.4682617-0.8051758,1.8974609c-0.5922852,0.4282227-1.3779297,0.4980469-2.0532227,0.1796875  c-0.4985352-0.2353516-1.0947266-0.0214844-1.3310547,0.4785156c-0.2353516,0.4995117-0.0209961,1.0952148,0.4785156,1.3310547  c0.5532227,0.2602539,1.1450195,0.3886719,1.7329102,0.3886719c0.8320312,0,1.6557617-0.2568359,2.3481445-0.7597656  c1.1811523-0.8583984,1.7998047-2.3017578,1.6142578-3.7666016C72.2329102,74.1601562,71.7275391,73.7758789,71.1845703,73.8413086z  "/><path d="M77.5146484,66.128418c-0.4995117,0.2358398-0.7138672,0.831543-0.4785156,1.3310547  c0.3183594,0.675293,0.2495117,1.4619141-0.1796875,2.0527344c-0.4291992,0.590332-1.1591797,0.9003906-1.8974609,0.8056641  c-0.5395508-0.0629883-1.0483398,0.3183594-1.1176758,0.8666992c-0.0693359,0.5478516,0.3188477,1.0483398,0.8666992,1.1176758  c0.171875,0.0214844,0.34375,0.0322266,0.5141602,0.0322266c1.28125,0,2.4946289-0.6040039,3.2524414-1.6469727  c0.8579102-1.1811523,1.0004883-2.7451172,0.3710938-4.0805664C78.609375,66.1069336,78.0136719,65.8930664,77.5146484,66.128418z"/><path d="M81.1518555,56.8364258c-0.4023438,0.3779297-0.421875,1.0107422-0.043457,1.4135742  c0.5112305,0.5439453,0.6884766,1.3134766,0.4628906,2.0083008c-0.2255859,0.6943359-0.8212891,1.2128906-1.5551758,1.3525391  c-0.5424805,0.1035156-0.8984375,0.6274414-0.7949219,1.1699219c0.0913086,0.4790039,0.5107422,0.8125,0.9814453,0.8125  c0.0620117,0,0.125-0.0058594,0.1884766-0.0175781c1.4501953-0.2768555,2.6313477-1.3110352,3.0825195-2.699707  s0.1030273-2.9199219-0.9082031-3.9960938C82.1870117,56.4780273,81.5541992,56.4580078,81.1518555,56.8364258z"/><path d="M83.0981445,46.4799805c-0.4863281-0.2670898-1.0922852-0.0898438-1.3579102,0.3950195  c-0.2661133,0.4838867-0.0888672,1.0922852,0.3950195,1.3579102C82.7895508,48.5922852,83.1962891,49.2695312,83.1962891,50  s-0.4067383,1.4077148-1.0610352,1.7670898c-0.4838867,0.265625-0.6611328,0.8740234-0.3950195,1.3579102  c0.1821289,0.331543,0.5244141,0.5185547,0.8774414,0.5185547c0.1625977,0,0.3276367-0.0395508,0.4804688-0.1235352  C84.3920898,52.809082,85.1962891,51.4604492,85.1962891,50S84.3920898,47.190918,83.0981445,46.4799805z"/><path d="M80.0161133,38.3891602c0.7338867,0.1396484,1.3295898,0.6582031,1.5551758,1.3520508  c0.2255859,0.6953125,0.0483398,1.4648438-0.4628906,2.0087891c-0.378418,0.402832-0.3588867,1.0356445,0.043457,1.4135742  c0.1933594,0.1816406,0.4394531,0.2714844,0.6850586,0.2714844c0.2661133,0,0.5317383-0.105957,0.7285156-0.3149414  c1.0112305-1.0761719,1.359375-2.6074219,0.9082031-3.996582c-0.4511719-1.3881836-1.6323242-2.4223633-3.0825195-2.6992188  c-0.5444336-0.1020508-1.0664062,0.2529297-1.1699219,0.7949219C79.1176758,37.7617188,79.4736328,38.2856445,80.0161133,38.3891602  z"/><path d="M74.9589844,29.6821289c0.7426758-0.0952148,1.4682617,0.215332,1.8974609,0.8051758  c0.4291992,0.5913086,0.4980469,1.3779297,0.1796875,2.0532227c-0.2353516,0.4995117-0.0209961,1.0952148,0.4785156,1.3310547  c0.1376953,0.0649414,0.2827148,0.0952148,0.4257812,0.0952148c0.375,0,0.734375-0.2119141,0.9052734-0.5737305  c0.6293945-1.3354492,0.4868164-2.8994141-0.3710938-4.0810547c-0.8583984-1.1806641-2.2993164-1.793457-3.7666016-1.6142578  c-0.5478516,0.0693359-0.9360352,0.5698242-0.8666992,1.1176758C73.9106445,29.3637695,74.4179688,29.7529297,74.9589844,29.6821289  z"/><path d="M67.4594727,22.9638672c0.675293-0.3188477,1.4609375-0.2504883,2.0527344,0.1796875  c0.5908203,0.4291992,0.8994141,1.15625,0.8056641,1.8974609c-0.0693359,0.5478516,0.3188477,1.0483398,0.8666992,1.1176758  c0.0424805,0.0053711,0.0849609,0.0078125,0.1269531,0.0078125c0.4960938,0,0.9267578-0.3691406,0.9907227-0.8745117  c0.1855469-1.4648438-0.4331055-2.9082031-1.6147461-3.7666016c-1.1811523-0.8583984-2.7451172-1-4.0805664-0.3710938  c-0.4995117,0.2358398-0.7138672,0.831543-0.4785156,1.3310547C66.3647461,22.9853516,66.9609375,23.1992188,67.4594727,22.9638672z  "/><path d="M58.25,18.8916016c0.5439453-0.5102539,1.3144531-0.6879883,2.0083008-0.4628906  c0.6943359,0.2255859,1.2128906,0.8212891,1.3525391,1.5551758c0.0913086,0.4790039,0.5107422,0.8125,0.9814453,0.8125  c0.0620117,0,0.125-0.0058594,0.1884766-0.0175781c0.5424805-0.1035156,0.8984375-0.6274414,0.7949219-1.1699219  c-0.2768555-1.4501953-1.3110352-2.6313477-2.699707-3.0825195c-1.3891602-0.4501953-2.9204102-0.1035156-3.9960938,0.9082031  c-0.4023438,0.3779297-0.421875,1.0107422-0.043457,1.4135742C57.2148438,19.25,57.847168,19.2700195,58.25,18.8916016z"/></svg>